<?xml version="1.0" encoding="UTF-8"?>
<!-- Created with EazyDraw for Mac ( https://www.eazydraw.com/ ) -->

<svg
    version="1.1"
    xmlns:dc="http://purl.org/dc/elements/1.1/"
    xmlns:cc="http://creativecommons.org/ns#"
    xmlns:rdf="http://www.w3.org/1999/02/22-rdf-syntax-ns#"
    xmlns:svg="http://www.w3.org/2000/svg"
    xmlns:xlink="http://www.w3.org/1999/xlink"
    xmlns="http://www.w3.org/2000/svg"
    width="198"
    height="180"
    viewBox="0, 0, 198, 180"
    preserveAspectRatio="none"
    id="svg2">
   <defs
       id="defs_CBD0CA07"/>
   <metadata
       id="metadata7">
      <rdf:RDF>
         <cc:Work
             rdf:about="">
            <dc:format>image/svg+xml</dc:format>
            <dc:type rdf:resource="http://purl.org/dc/dcmitype/StillImage"/>
            <dc:title></dc:title>
         </cc:Work>
      </rdf:RDF>
   </metadata>
   <g
       id="layer_Paper"
       style="fill:#000000;fill-opacity:1;stroke:#000000;stroke-opacity:1;fill-rule:nonzero;stroke-linecap:square;stroke-linejoin:miter;stroke-width:1;stroke-miterlimit:10">
      <path
          style="fill:#16161D;stroke:#16161D;fill-rule:evenodd;stroke-linecap:round;stroke-width:0.7086615;stroke-miterlimit:4"
          id="A33E1707"
          d="M191.24709375,130.39125 C190.380390272,129.361182433 189.093978593,128.778822873 187.74809375,128.80725 C186.408134208,128.810781501 185.104502795,129.243222674 184.02809375,130.04125 C183.406999188,130.493600798 182.842902164,131.019419809 182.34809375,131.60725
C181.420230378,132.704727973 180.480508606,133.792125072 179.52909375,134.86925 C174.904427084,140.099916667 170.977427084,143.912583333 167.74809375,146.30725 C166.956064306,146.896130431 166.129960565,147.43773927 165.27409375,147.92925
C162.326583716,149.667773637 158.970088233,150.591965998 155.54809375,150.60725 C152.922565263,150.624673193 150.330553011,150.017288148 147.98609375,148.83525 C146.074960482,147.849857528 144.339083753,146.556565172 142.84809375,145.00725
C140.32009375,142.43325 137.77609375,138.84525 135.21609375,134.24325 C133.979889315,132.006167593 132.823166768,129.726076666 131.74809375,127.40725 C130.688773732,125.112259097 129.55042717,122.854577327 128.33509375,120.63825
C127.197760417,118.57625 126.060427083,116.707583333 124.92309375,115.03225 C123.835842468,113.412625799 122.64151188,111.8675128 121.34809375,110.40725 C117.881427084,106.540583333 112.94809375,103.740583333 106.54809375,102.00725
C116.681427084,99.3405833332 125.281427084,95.2739166666 132.34809375,89.80725 C134.075816137,88.4741191093 135.734310539,87.0536014648 137.31709375,85.5512499999 C141.795421031,81.3523647791 145.496051185,76.3947188199 148.24809375,70.90725
C148.467955453,70.4634154214 148.681973939,70.0167101712 148.89009375,69.5672499999 C151.932645129,63.1387526843 153.522934325,56.1193568351 153.54809375,49.00725 C153.54809375,40.4739166666 151.44809375,32.8072500001 147.24809375,26.0072500001
C143.04809375,19.2072500001 136.614760417,13.8739166667 127.94809375,10.00725 C119.281427084,6.140583333321 108.54809375,4.207250000057 95.7480937502,4.207250000057 C91.818541123,4.20211566658 87.8915496979,4.40807908964 83.9840937501,4.824249999942
C70.9089606761,6.1072468183 58.2876258853,10.304448877 47.0480937501,17.10725 C40.9215203297,20.8475092719 35.3180088182,25.3837172826 30.38409375,30.59725 C23.795229514,37.6427258427 18.3505781367,45.676758397 14.24809375,54.40725
C9.860760416725,63.55725 6.707093749972,73.6775833333 4.787093749943,84.7682499999 C3.252636737287,93.9003805016 2.503563103545,103.14720773 2.548093750068,112.40725 C2.534752740103,117.083269802 2.843483258617,121.754656576 3.472093750054,126.38825
C4.296828323335,132.593907889 5.866826243008,138.67748195 8.148093749963,144.50725 C9.315637043086,147.473618926 10.7135728791,150.344051634 12.3290937499,153.09225 C15.3352405268,158.276755335 19.3144484056,162.831843115 24.0480937501,166.50725
C30.9147604166,171.773916667 38.8147604168,174.40725 47.74809375,174.40725 C48.8409994502,174.408701193 49.9335301911,174.36666795 51.02309375,174.28125 C57.5297604167,173.761916667 62.5047604168,171.63725 65.9480937502,167.90725
C69.9480937501,163.573916667 72.6147604168,157.340583333 73.9480937501,149.20725 C74.1647604167,148.01525 74.6454270835,145.10725 75.3900937501,140.48325 C75.5766863486,139.324678541 75.7626863729,138.166011722 75.94809375,137.00725
C76.2921790963,134.996150411 76.6368457774,132.985150326 76.98209375,130.974250001 C78.9027604168,119.79225 80.0914270834,113.00325 80.5480937501,110.60725 C81.6831015381,110.729554893 82.8068421276,110.940193563 83.9090937501,111.23725
C85.9823160574,111.783227713 87.930861476,112.723717486 89.6480937501,114.00725 C91.3440937502,115.290583333 93.0557604168,117.156916667 94.7830937501,119.60625 C95.623470121,120.805876717 96.4125145423,122.040656169 97.1480937501,123.30725
C99.0480937502,126.55725 101.47309375,131.138583333 104.42309375,137.05125 C105.476352668,139.164197487 106.518034948,141.28289591 107.54809375,143.40725 C113.014760417,154.740583333 118.781427084,162.740583333 124.84809375,167.40725
C128.114327747,169.92095257 131.828074581,171.791738964 135.79209375,172.92025 C139.422518957,173.937151848 143.178060952,174.437733683 146.94809375,174.40725 C149.374531018,174.413015588 151.798308067,174.246261866 154.20109375,173.90825
C159.874829173,173.155086857 165.316537256,171.175570422 170.14809375,168.10725 C170.855278417,167.652222493 171.553090753,167.182791166 172.24109375,166.69925 C175.262427084,164.577916667 178.26909375,162.07725 181.26109375,159.19725
C184.190558735,156.359070592 186.957302408,153.35761945 189.54809375,150.20725 C190.038159204,149.613286095 190.480219009,148.981294393 190.87009375,148.31725 C191.802760417,146.731916667 192.47209375,144.924916666 192.87809375,142.89625
C193.201883853,141.219521901 193.359314323,139.514918366 193.34809375,137.80725 C193.349604358,137.173599084 193.321239534,136.540229265 193.26309375,135.90925 C193.081760417,133.99325 192.61009375,132.425916667 191.84809375,131.20725
C191.669891093,130.919624611 191.46891382,130.64675031 191.24709375,130.39125 z M47.5480937501,140.40725 L52.9480937501,110.40725 C51.870715181,110.413359673 50.7942861002,110.342176998 49.7270937501,110.19425
C47.25509375,109.835583333 45.3914270834,109.02425 44.1360937501,107.76025 C43.9626303495,107.585733067 43.7996772035,107.401075096 43.64809375,107.20725 C41.9814270833,105.073916667 41.14809375,102.673916667 41.14809375,100.00725
C41.1375651595,98.8859750494 41.2843275584,97.7687631171 41.58409375,96.6882499999 C42.0462086242,95.0366368576 42.9704614239,93.5513792618 44.2480937501,92.4072499999 C46.1682753427,90.5981989802 48.7099821803,89.5958357203 51.3480937501,89.6072499999
L56.34809375,89.6072499999 C57.8147604168,80.6239166667 59.2184270834,72.49125 60.55909375,65.20925 C61.1356949177,62.0715275544 61.7320400637,58.9374654731 62.3480937501,55.80725 C62.7486636084,53.6140700643 63.5391671871,51.5104634973 64.6820937501,49.59625
C67.4847604167,45.07025 72.3067604168,42.8072499999 79.1480937502,42.8072499999 C80.5948892345,42.7903517926 82.038696765,42.9427201373 83.4500937501,43.26125 C87.3054270834,44.18325 89.5900937502,46.5109166667 90.3040937502,50.2442499999
C90.4722072963,51.1555177056 90.5539031842,52.0806231893 90.5480937501,53.00725 C90.5480937501,54.2159166666 90.5027604168,55.19825 90.4120937501,55.95425 C90.3942198529,56.1057185733 90.3728809298,56.2567581376 90.3480937502,56.4072499999
L84.3480937501,89.6072499999 C89.262263972,89.3639452153 94.1134241143,88.3951285017 98.74409375,86.73225 C100.559783941,86.0709476331 102.331389172,85.2943672861 104.04809375,84.40725 C109.981427083,81.3405833333 114.714760417,77.0739166666 118.24809375,71.60725
C121.574694218,66.4368397371 123.402089483,60.4451017874 123.52709375,54.2982499999 C123.541034311,53.8680575609 123.548035221,53.4376682504 123.54809375,53.00725 C123.577525374,50.0663046886 123.169737941,47.1373124742 122.33809375,44.31625
C121.029558253,39.9629774781 118.45745767,36.0964733684 114.94809375,33.20725 C110.524760417,29.5039166667 104.514427083,27.22925 96.9170937502,26.38325 C94.5362026116,26.1256440632 92.1428698511,26.0001184504 89.7480937501,26.0072500001
C83.3539693443,25.9598531467 76.9860044757,26.8283344474 70.8380937501,28.5862499999 C65.3803718647,30.1756550193 60.1924548162,32.5761200811 55.4480937501,35.70725 C48.6939944743,40.2252038619 42.9639991859,46.1112332689 38.62909375,52.98425
C36.2837567465,56.6486325537 34.249638607,60.5031208488 32.54809375,64.5072499999 C29.8732725426,70.8498814048 27.8995579646,77.4658155915 26.66209375,84.23725 C25.5047604167,90.3439166667 24.7817604166,96.8899166666 24.49309375,103.87525
C24.3955734667,106.25132874 24.347229786,108.629171019 24.3480937501,111.00725 C24.339472472,114.280790038 24.4826261617,117.552969714 24.77709375,120.81325 C25.0777604166,124.038583333 25.5360937501,127.045583333 26.1520937501,129.83425
C26.3867327972,130.89938099 26.6521774581,131.957491429 26.9480937501,133.00725 C27.4486905752,134.799564719 28.0299490026,136.568365479 28.6900937501,138.30825 C30.0307604167,141.806916666 31.5544270834,144.604583333 33.26109375,146.70125
C33.28996352,146.73669002 33.3189637166,146.772023593 33.34809375,146.80725 C35.8814270835,149.873916666 38.2814270833,151.40725 40.5480937501,151.40725 C41.863576582,151.412652055 43.1193354464,150.858576633 44.0020937501,149.88325
C44.3168260539,149.55157281 44.6000445051,149.191356435 44.84809375,148.80725 C45.9814270834,147.073916667 46.8814270833,144.273916667 47.5480937501,140.40725 z"/>
   </g>
</svg>
